<?xml version="1.0" standalone="no"?>
<!DOCTYPE svg PUBLIC "-//W3C//DTD SVG 20010904//EN"
 "http://www.w3.org/TR/2001/REC-SVG-20010904/DTD/svg10.dtd">
<svg version="1.0" xmlns="http://www.w3.org/2000/svg"
 width="1347.000000pt" height="539.000000pt" viewBox="0 0 1347.000000 539.000000"
 preserveAspectRatio="xMidYMid meet">

<g transform="translate(0.000000,539.000000) scale(0.100000,-0.100000)"
fill="#000000" stroke="none">
<path d="M1720 3724 c-916 -917 -1656 -1664 -1645 -1661 11 3 517 224 1124
491 607 268 1109 485 1116 482 7 -2 212 -151 455 -331 243 -179 447 -328 454
-331 8 -3 142 180 346 468 183 260 334 475 336 477 2 2 610 -270 1351 -605
741 -334 1373 -618 1403 -631 50 -22 -88 119 -1610 1641 -916 916 -1665 1666
-1665 1666 0 0 -749 -750 -1665 -1666z"/>
<path d="M9371 4999 c-149 -23 -263 -79 -361 -178 -77 -78 -136 -189 -172
-321 -22 -81 -23 -100 -23 -435 1 -330 2 -355 23 -429 57 -205 169 -355 322
-429 98 -48 173 -67 295 -74 299 -17 534 105 657 342 17 34 29 68 26 76 -5 14
-297 149 -321 149 -7 0 -23 -21 -37 -47 -64 -122 -163 -179 -294 -171 -144 10
-228 89 -262 247 -20 94 -19 589 1 685 17 81 51 143 102 186 82 67 224 78 322
25 52 -29 120 -105 140 -158 6 -15 18 -27 28 -27 27 0 314 132 320 147 7 19
-39 111 -90 179 -78 103 -203 183 -342 219 -76 20 -250 27 -334 14z"/>
<path d="M5737 4973 c-4 -3 -7 -82 -7 -174 l0 -169 248 -2 247 -3 5 -730 5
-730 190 0 190 0 5 730 5 730 245 3 c180 2 246 6 252 15 13 21 10 311 -4 325
-9 9 -177 12 -693 12 -375 0 -685 -3 -688 -7z"/>
<path d="M7346 4964 c-8 -20 -8 -1767 0 -1788 6 -14 69 -16 610 -16 l604 0 -2
168 -3 167 -407 3 -408 2 0 205 0 205 345 0 345 0 0 164 c0 140 -2 165 -16
170 -9 3 -164 6 -345 6 l-329 0 0 195 0 195 410 0 410 0 -2 168 -3 167 -601 3
c-542 2 -602 1 -608 -14z"/>
<path d="M10395 4968 c-3 -7 -4 -416 -3 -908 l3 -895 189 -3 c145 -2 191 1
198 10 4 7 8 174 8 371 l0 357 310 0 310 0 2 -367 3 -368 193 -3 192 -2 -2
907 -3 908 -190 0 -190 0 -5 -360 -5 -360 -305 0 -305 0 -3 349 c-1 237 -6
354 -13 363 -16 18 -377 19 -384 1z"/>
<path d="M3046 1527 c-517 -749 -941 -1367 -943 -1372 -5 -16 415 -155 425
-141 11 14 1822 2641 1845 2677 l17 25 -188 82 c-103 45 -194 83 -202 86 -11
4 -276 -373 -954 -1357z"/>
<path d="M7120 1735 l0 -905 195 0 195 0 2 322 3 323 255 5 c244 5 258 7 328
32 41 15 99 42 129 60 111 67 207 199 238 329 19 82 19 236 0 318 -48 203
-212 356 -432 405 -60 13 -144 16 -492 16 l-421 0 0 -905z m830 544 c85 -38
129 -102 137 -199 11 -113 -56 -221 -153 -250 -45 -13 -359 -26 -398 -16 l-26
6 0 240 0 240 198 0 c177 0 202 -3 242 -21z"/>
<path d="M8735 2618 c-3 -13 -4 -419 -3 -903 l3 -880 608 -3 607 -2 0 164 c0
140 -2 165 -16 170 -9 3 -193 6 -410 6 l-394 0 0 200 0 200 343 2 342 3 3 168
2 167 -345 0 -345 0 0 195 0 195 408 2 407 3 3 168 2 167 -605 0 -605 0 -5
-22z"/>
<path d="M10727 2598 c-8 -24 -150 -425 -316 -892 -166 -466 -301 -855 -301
-862 0 -12 33 -14 198 -12 l197 3 55 167 54 168 317 0 317 0 57 -170 57 -170
200 0 c186 0 200 1 196 18 -9 32 -618 1774 -624 1783 -3 5 -92 9 -199 9 l-193
0 -15 -42z m313 -774 c55 -171 100 -314 100 -317 0 -4 -92 -7 -205 -7 -149 0
-205 3 -205 12 0 18 201 630 205 626 2 -2 49 -144 105 -314z"/>
<path d="M11970 1735 l0 -905 195 0 195 0 0 241 0 241 114 145 c63 79 118 144
123 143 4 -1 101 -173 214 -383 l205 -382 227 -3 c125 -1 227 0 227 3 0 3
-138 248 -306 544 l-305 540 275 345 c152 191 276 353 276 361 0 13 -30 15
-217 13 l-218 -3 -305 -398 -305 -397 -3 400 -2 400 -195 0 -195 0 0 -905z"/>
<path d="M1044 2136 c-551 -226 -1009 -418 -1018 -425 -14 -12 -16 -41 -16
-206 0 -142 3 -195 13 -203 24 -20 2041 -843 2054 -838 10 4 13 55 13 244 0
209 -2 241 -16 253 -9 7 -322 131 -696 275 -373 143 -680 265 -681 270 -1 5
303 126 677 270 373 143 687 266 697 272 18 11 19 28 19 257 l0 245 -22 -1
c-13 0 -474 -186 -1024 -413z"/>
<path d="M4647 2544 c-9 -10 -9 -466 1 -481 11 -18 38 -28 742 -299 355 -136
649 -250 653 -254 4 -4 -299 -125 -675 -269 -376 -145 -693 -269 -705 -277
-23 -14 -23 -16 -23 -255 0 -196 3 -241 14 -245 17 -6 2034 819 2056 842 12
11 16 49 18 177 2 95 -1 177 -7 198 l-11 35 -1007 414 c-555 227 -1017 415
-1028 418 -11 2 -24 0 -28 -4z"/>
</g>
</svg>
